<svg height="512pt" viewBox="-61 0 512 512" width="512pt" xmlns="http://www.w3.org/2000/svg"><path d="m45 512h330c8.285156 0 15-6.714844 15-15 0-50.796875 0-466.628906 0-482 0-8.285156-6.714844-15-15-15h-330c-24.8125 0-45 20.1875-45 45v422c0 24.8125 20.1875 45 45 45zm315-30h-315c-8.269531 0-15-6.730469-15-15s6.730469-15 15-15h315zm0-60h-270v-392h30v45c0 3.976562 1.582031 7.792969 4.394531 10.605469l30 30c2.925781 2.929687 6.765625 4.394531 10.605469 4.394531s7.679688-1.464844 10.605469-4.394531l30-30c2.8125-2.8125 4.394531-6.628907 4.394531-10.605469v-45h150zm-210-392h30v38.785156l-15 15-15-15zm-105 0h15v392h-15c-5.257812 0-10.304688.914062-15 2.578125v-379.578125c0-8.269531 6.730469-15 15-15zm0 0"/><path d="m135 150c-8.285156 0-15 6.714844-15 15v92c0 8.285156 6.714844 15 15 15h180c8.285156 0 15-6.714844 15-15v-92c0-8.285156-6.714844-15-15-15zm165 92h-150v-62h150zm0 0"/><path d="m285 302h-120c-8.285156 0-15 6.714844-15 15s6.714844 15 15 15h120c8.285156 0 15-6.714844 15-15s-6.714844-15-15-15zm0 0"/><path d="m255 362h-60c-8.285156 0-15 6.714844-15 15s6.714844 15 15 15h60c8.285156 0 15-6.714844 15-15s-6.714844-15-15-15zm0 0"/></svg>