<svg height="384pt" viewBox="-24 0 384 384.00007" width="384pt" xmlns="http://www.w3.org/2000/svg"><path d="m7.96875 381.839844c4.941406 2.863281 11.015625 2.878906 15.96875.046875l104.0625-59.453125 104.0625 59.460937c2.457031 1.402344 5.195312 2.105469 7.9375 2.105469 2.777344 0 5.542969-.71875 8.03125-2.160156 4.929688-2.863282 7.96875-8.136719 7.96875-13.839844v-132.433594l32.0625 18.320313c2.457031 1.417969 5.203125 2.113281 7.9375 2.113281 3.105469 0 6.191406-.902344 8.871094-2.6875 5.039062-3.359375 7.753906-9.289062 7-15.296875l-7.167969-57.296875 27.785156-34.71875c3.542969-4.433594 4.480469-10.414062 2.457031-15.710938-2.035156-5.304687-6.722656-9.128906-12.3125-10.066406l-41.167968-6.863281-25.464844-38.207031v-59.152344c0-8.832031-7.167969-16-16-16h-128c-8.832031 0-16 7.167969-16 16s7.167969 16 16 16h112v43.152344l-25.472656 38.199218-41.160156 6.863282c-5.597657.9375-10.289063 4.761718-12.320313 10.066406-2.023437 5.304688-1.09375 11.277344 2.457031 15.710938l27.777344 34.71875-7.160156 57.296874c-.753906 6.007813 1.957031 11.9375 7 15.296876 5.039062 3.367187 11.566406 3.589843 16.816406.574218l32.0625-18.3125v104.859375l-88.0625-50.320312c-4.914062-2.816407-10.960938-2.816407-15.875 0l-88.0625 50.328125v-308.433594h16c8.832031 0 16-7.167969 16-16s-7.167969-16-16-16h-32c-8.832031 0-16 7.167969-16 16v352c0 5.703125 3.03125 10.976562 7.96875 13.839844zm196.527344-215.839844-14.960938-18.703125 21.105469-3.519531c4.359375-.730469 8.222656-3.226563 10.679687-6.90625l18.679688-28.03125 18.6875 28.03125c2.457031 3.679687 6.320312 6.175781 10.679688 6.90625l21.105468 3.519531-14.960937 18.703125c-2.703125 3.375-3.917969 7.695312-3.382813 11.984375l4.03125 32.246094-28.214844-16.117188c-.183593-.105469-.386718-.136719-.578124-.234375-.847657-.445312-1.734376-.808594-2.671876-1.09375-.320312-.097656-.632812-.21875-.960937-.296875-1.207031-.296875-2.445313-.488281-3.734375-.488281s-2.527344.191406-3.734375.480469c-.328125.078125-.640625.199219-.960937.296875-.929688.285156-1.816407.648437-2.671876 1.09375-.183593.097656-.394531.128906-.578124.234375l-28.214844 16.117187 4.03125-32.246094c.546875-4.28125-.679688-8.601562-3.375-11.976562zm0 0"/></svg>