<svg xmlns="http://www.w3.org/2000/svg" viewBox="0 0 510.931 510.931">
    <path d="M257.534 477.477c9.35 0 17-7.65 17-17V235.511l69.7 62.05c3.117 2.833 7.367 4.25 11.333 4.25 4.817 0 9.35-1.983 12.75-5.667 6.233-7.083 5.667-17.85-1.417-24.083l-98.033-86.983c-6.517-5.95-16.717-5.667-22.95.567l-90.95 86.983c-6.8 6.517-7.083 17.283-.567 24.083 6.517 6.8 17.283 7.083 24.083.567l61.767-59.217v222.7c.284 9.066 7.934 16.716 17.284 16.716z"/>
    <path d="M447.934 222.761c1.417-14.733 2.267-39.1-4.817-65.733-10.2-39.383-39.383-91.517-119.567-115.6-44.2-13.317-83.583-9.917-116.733 9.917-44.767 26.917-65.733 76.5-73.667 101.717-18.983-1.417-51.283-.567-79.617 17.567-25.783 16.433-42.5 42.783-50.15 78.483-10.483 49.867 5.383 82.45 20.4 100.867 25.217 31.167 66.3 45.05 95.767 45.05h47.317c9.35 0 17-7.65 17-17s-7.65-17-17-17h-47.033c-20.683 0-51-10.2-69.417-32.583-15.017-18.7-19.55-43.067-13.6-72.533 5.383-26.35 17.283-45.333 34.85-56.667 30.6-18.983 69.983-10.483 70.267-10.483 4.533 1.133 9.067.283 13.033-2.267s6.517-6.517 7.367-10.767c0-.567 14.167-66.3 62.05-94.917 24.65-14.733 54.683-17 89.533-6.517 123.25 36.833 99.733 150.45 98.6 155.267-1.983 8.5 2.833 17 10.767 19.833 2.833.85 66.583 24.65 50.717 77.35-10.767 36.267-54.683 34.85-56.383 34.85h-63.75c-9.35 0-17 7.65-17 17s7.65 17 17 17h66.017c26.067 0 72.817-11.9 86.983-59.217 17.566-58.651-25.501-96.901-58.934-113.617z"/>
</svg>
