<svg xmlns="http://www.w3.org/2000/svg" viewBox="0 0 654.758 654.758">
    <path d="M443.398 75.359l17.515-29.437c3.974-7.139 12.732-9.567 19.87-5.593 7.138 3.974 9.567 12.732 5.593 19.87l-17.515 29.437c-2.355 4.784-7.948 7.139-12.732 7.139-2.355 0-4.784-.81-7.138-1.619-7.212-3.901-9.567-12.585-5.593-19.797zM185.896 89.71c2.355 4.784 7.948 7.139 12.732 7.139 2.355 0 4.784-.81 7.139-1.619 7.139-3.974 9.567-12.732 5.593-19.87l-17.515-29.437c-3.974-7.139-12.732-9.567-19.87-5.593s-9.567 12.732-5.593 19.87l17.514 29.51zm141.446-27.009c7.948 0 14.277-6.329 14.277-14.277V14.277C341.619 6.329 335.29 0 327.342 0c-7.948 0-14.277 6.329-14.277 14.277v34.147c-.81 7.875 5.519 14.277 14.277 14.277zM69.84 290.766H35.693c-7.948 0-14.277 6.329-14.277 14.277 0 7.948 6.329 14.277 14.277 14.277H69.84c7.948 0 14.277-6.329 14.277-14.277s-6.329-14.277-14.277-14.277zm549.225 0h-34.147c-7.948 0-14.277 6.329-14.277 14.277 0 7.948 6.329 14.277 14.277 14.277h34.147c7.948 0 14.277-6.329 14.277-14.277s-6.329-14.277-14.277-14.277zm-26.273-138.281c-3.974-7.139-12.732-9.567-19.87-5.593l-29.437 17.515c-7.138 3.974-9.567 12.732-5.593 19.87 2.355 4.784 7.948 7.139 12.732 7.139 2.355 0 4.784-.81 7.138-1.619l29.437-17.515c7.212-3.901 9.567-12.659 5.593-19.797zm-77.861 151.013c0 32.602-8.758 64.394-24.654 93.022-.809 2.355-1.619 3.974-3.165 5.593l-1.619 2.355c-6.329 9.567-12.732 19.061-20.68 27.009-27.818 38.931-42.095 72.342-41.359 93.758v.81c0 1.619.81 3.974.81 6.329v68.368c0 30.173-24.654 54.017-54.017 54.017h-88.164c-30.173 0-54.017-24.654-54.017-54.017v-68.368-3.974-3.164c.81-20.68-13.541-53.281-39.74-91.403-8.758-9.567-17.515-19.87-23.844-31.792-.809-1.619-1.619-2.355-2.355-3.974-16.706-28.628-25.463-61.229-25.463-93.758 0-104.134 85.074-189.134 189.134-189.134 104.059-.811 189.133 84.189 189.133 188.323zM394.9 540.32H257.429v27.009H394.9V540.32zm0 62.039v-5.593H257.429v5.593c1.619 12.732 11.922 22.225 24.654 22.225h88.238c12.657 0 23.034-9.493 24.579-22.225zm90.593-298.861c0-88.238-71.532-159.771-159.771-159.771s-159.77 71.533-159.77 159.771c0 28.628 7.948 56.446 22.225 81.1v.809a192.604 192.604 0 0 0 21.489 28.628l1.619 1.619c26.199 37.385 41.359 69.177 45.333 95.377H395.71c4.784-32.602 27.009-69.913 46.879-97.732 0-.81.81-.81 1.619-1.619 7.139-7.139 13.541-15.896 18.251-24.654 0-.81.81-.81.81-1.619 0-.81.81-.809.81-1.619 14.276-23.844 21.414-51.662 21.414-80.29zM111.199 164.407l-29.437-17.515c-7.139-3.974-15.896-1.619-19.87 5.593-3.974 7.139-1.619 15.896 5.593 19.87l29.437 17.515c2.355 1.619 4.784 1.619 7.139 1.619 4.784 0 10.303-2.355 12.732-7.139 3.9-7.211 1.545-15.969-5.594-19.943z"/>
</svg>
