<svg xmlns="http://www.w3.org/2000/svg" viewBox="0 0 511.999 511.999">
    <path d="M436.921 75.079C389.413 27.571 326.51 1.066 259.464.18c-1.168-.106-2.327-.18-3.465-.18s-2.297.074-3.465.18c-67.046.885-129.949 27.39-177.457 74.898C26.752 123.405.138 187.657.138 255.999s26.614 132.595 74.94 180.921c47.508 47.508 110.41 74.013 177.457 74.898 1.168.107 2.327.18 3.464.18 1.138 0 2.297-.074 3.465-.18 67.047-.885 129.95-27.39 177.457-74.898 48.325-48.325 74.939-112.577 74.939-180.921.001-68.342-26.613-132.594-74.939-180.92zM96.586 96.587c27.181-27.181 60.086-46.552 95.992-57.018-8.093 9.317-15.96 20.033-23.282 31.908-9.339 15.146-17.425 31.562-24.196 48.919H75.865a228.731 228.731 0 0 1 20.721-23.809zm-40.1 54.226h78.373c-8.15 28.522-12.97 58.908-14.161 89.978H31.071c2.105-31.804 10.794-62.326 25.415-89.978zm.001 210.373c-14.623-27.652-23.312-58.174-25.417-89.978h89.627c1.191 31.071 6.011 61.457 14.161 89.978H56.487zm40.1 54.226a228.284 228.284 0 0 1-20.722-23.809h69.236c6.771 17.357 14.856 33.773 24.196 48.919 7.322 11.875 15.189 22.591 23.282 31.908-35.905-10.466-68.81-29.837-95.992-57.018zm144.203 59.91c-12.671-8.29-29.685-24.946-45.605-50.764-6.385-10.354-12.124-21.382-17.197-32.954h62.801v83.718zm0-114.136h-74.195c-8.888-28.182-14.163-58.651-15.459-89.978h89.654v89.978zm0-120.395h-89.654c1.295-31.327 6.57-61.797 15.459-89.978h74.195v89.978zm0-120.396h-62.801c5.073-11.572 10.812-22.6 17.197-32.954 15.919-25.818 32.934-42.475 45.605-50.764v83.718zm214.722 30.418c14.623 27.653 23.311 58.174 25.416 89.978H391.3c-1.191-31.071-6.011-61.457-14.161-89.978h78.373zm-40.099-54.226a228.731 228.731 0 0 1 20.721 23.809h-69.235c-6.771-17.357-14.856-33.773-24.196-48.919-7.322-11.875-15.188-22.591-23.282-31.908 35.905 10.466 68.81 29.837 95.992 57.018zm-144.205-59.91c12.671 8.29 29.685 24.946 45.605 50.764 6.385 10.354 12.124 21.382 17.197 32.954h-62.801V36.677zm0 114.136h74.195c8.889 28.182 14.164 58.653 15.459 89.978h-89.654v-89.978zm89.653 120.395c-1.295 31.327-6.57 61.797-15.459 89.978h-74.195v-89.978h89.654zm-89.653 204.114v-83.718h62.801c-5.073 11.572-10.812 22.6-17.197 32.954-15.919 25.819-32.933 42.474-45.604 50.764zm144.205-59.909c-27.182 27.181-60.086 46.551-95.992 57.018 8.093-9.317 15.96-20.033 23.282-31.908 9.339-15.146 17.425-31.562 24.196-48.919h69.235a228.613 228.613 0 0 1-20.721 23.809zm40.099-54.227h-78.373c8.15-28.521 12.971-58.907 14.161-89.978h89.627c-2.105 31.804-10.794 62.326-25.415 89.978z"/>
</svg>
