<svg xmlns="http://www.w3.org/2000/svg" xmlns:xlink="http://www.w3.org/1999/xlink" style="isolation:isolate" viewBox="0 0 512 512" width="512" height="512"><defs><clipPath id="_clipPath_xxqb9GT1oaCDaRwuKfMfNcZCyLvz8naA">
<rect width="512" height="512"/></clipPath></defs><g clip-path="url(#_clipPath_xxqb9GT1oaCDaRwuKfMfNcZCyLvz8naA)">
<path d=" M 2.011 433.349 L 510 433.349 L 510 75.837 L 2.011 75.837 L 2.011 433.349 Z " fill="none"/><g><g>
<path d=" M 501.92 75.837 L 158.041 75.876 L 158.041 75.903 C 130.959 75.903 106.496 91.812 95.679 116.486 L 8.735 325.825 C 8.301 326.838 8.064 327.904 8.064 328.996 C 8.064 333.404 11.696 336.997 16.157 336.997 L 362.839 336.97 L 366.484 336.72 C 391.54 334.431 413.332 318.771 423.083 295.492 L 509.382 86.93 C 509.803 85.97 510 84.93 510 83.851 C 510 79.429 506.381 75.837 501.92 75.837 Z " fill="rgb(255,255,255)"/></g><g>
<path d=" M 170.653 389.591 C 166.481 383.59 159.809 382.919 157.085 382.919 C 145.084 382.919 137.912 392.407 137.912 401.579 C 137.912 412.119 146.334 420.357 157.085 420.357 C 159.783 420.357 166.428 419.699 170.653 413.738 L 170.653 419.568 L 175.679 419.568 L 175.679 383.893 L 170.653 383.893 L 170.653 389.591 Z  M 157.085 415.791 C 149.019 415.791 142.939 409.764 142.939 401.776 C 142.939 392.394 150.058 387.498 157.085 387.498 C 164.705 387.498 170.916 393.867 170.916 401.71 C 170.916 409.606 164.836 415.791 157.085 415.791 Z " fill="rgb(255,255,255)"/></g><g><path d=" M 211.754 402.737 C 211.754 408.988 210.057 411.211 208.162 413.093 C 206.306 414.949 203.938 415.857 200.885 415.857 C 197.503 415.857 194.832 414.764 192.923 412.606 C 191.265 410.553 190.463 407.566 190.463 403.513 L 190.463 383.88 L 185.449 383.88 L 185.449 403.579 C 185.449 408.619 186.502 412.488 188.594 415.054 C 190.199 417.067 193.924 420.423 200.885 420.423 C 207.859 420.423 211.004 416.423 212.018 414.633 L 212.018 419.554 L 216.781 419.554 L 216.781 383.88 L 211.754 383.88 L 211.754 402.737 Z " fill="rgb(255,255,255)"/></g><g><path d=" M 254.509 389.717 C 250.206 383.598 243.718 382.914 241.073 382.914 C 232.099 382.914 222.413 390.138 222.413 401.824 C 222.413 413.272 232.099 420.352 241.073 420.352 C 245.508 420.352 251.614 418.536 254.509 413.562 L 254.509 415.917 C 254.509 425.405 247.785 428.774 242.034 428.774 C 233.494 428.774 230.138 422.681 229.085 420.062 L 229.019 419.891 L 223.743 419.891 L 223.835 420.234 C 227.401 432.406 238.718 433.353 242.1 433.353 C 243.06 433.353 251.653 433.169 256.259 426.747 C 259.523 422.365 259.523 417.575 259.523 413.733 L 259.523 383.887 L 254.509 383.887 L 254.509 389.717 Z  M 241.073 415.786 C 233.546 415.786 227.44 409.469 227.44 401.692 C 227.44 393.862 233.546 387.48 241.073 387.48 C 248.614 387.48 254.772 393.862 254.772 401.692 C 254.772 407.377 250.416 415.786 241.073 415.786 Z " fill="rgb(255,255,255)"/></g><g><path d=" M 305.144 382.969 C 301.998 382.969 296.077 384.337 293.313 389.417 C 290.537 384.337 284.615 382.969 281.47 382.969 C 278.259 382.969 274.219 384.351 272.153 387.311 L 272.153 383.864 L 267.126 383.864 L 267.126 419.578 L 272.153 419.578 L 272.153 398.931 C 272.153 395.273 272.785 393.404 273.719 391.72 C 275.311 389.035 278.062 387.548 281.47 387.548 C 284.878 387.548 287.642 389.035 289.221 391.72 C 290.168 393.404 290.8 395.273 290.8 398.931 L 290.8 419.578 L 295.814 419.578 L 295.814 398.931 C 295.814 395.286 296.445 393.404 297.393 391.72 C 298.985 389.035 301.735 387.548 305.144 387.548 C 308.552 387.548 311.302 389.035 312.894 391.72 C 313.842 393.404 314.473 395.286 314.473 398.931 L 314.473 419.578 L 319.487 419.578 L 319.487 398.405 C 319.487 386.219 310.473 382.969 305.144 382.969 Z " fill="rgb(255,255,255)"/></g><g><path d=" M 343.91 382.939 C 333.698 383.136 325.381 391.558 325.381 401.73 C 325.381 412.008 333.724 420.377 343.975 420.377 C 351.858 420.377 358.924 415.35 361.53 407.862 L 361.648 407.507 L 356.345 407.507 L 356.279 407.678 C 354.937 411.35 350.884 415.666 343.91 415.797 C 337.198 415.797 331.027 410.139 330.553 403.586 L 362.556 403.586 L 362.569 403.349 C 362.806 399.138 361.885 395.348 359.846 392.071 C 357.332 387.702 351.831 383.004 343.91 382.939 Z  M 330.592 399.019 C 331.908 391.466 338.291 387.518 343.975 387.518 C 349.45 387.518 355.937 391.124 357.424 399.019 L 330.592 399.019 Z " fill="rgb(255,255,255)"/></g><g><path d=" M 385.021 382.969 C 379.757 382.969 376.072 385.548 374.348 387.983 L 374.348 383.864 L 369.322 383.864 L 369.322 419.578 L 374.348 419.578 L 374.348 399.958 C 374.283 395.905 375.427 392.549 377.546 390.496 C 380.362 387.759 383.981 387.548 385.021 387.548 C 386.06 387.548 389.679 387.759 392.495 390.496 C 394.601 392.523 395.759 395.891 395.759 399.958 L 395.759 419.578 L 400.785 419.578 L 400.785 399.958 C 400.785 394.549 399.246 390.193 396.338 387.351 C 393.298 384.324 389.811 382.969 385.021 382.969 Z " fill="rgb(255,255,255)"/></g><g><path d=" M 418.735 371.424 L 413.708 371.424 L 413.708 383.873 L 406.312 383.873 L 406.312 388.452 L 413.708 388.452 L 413.708 419.587 L 418.735 419.587 L 418.735 388.452 L 427.157 388.452 L 427.157 383.873 L 418.735 383.873 L 418.735 371.424 Z " fill="rgb(255,255,255)"/></g><g><path d=" M 448.566 382.928 C 438.354 383.112 430.051 391.547 430.051 401.706 C 430.051 411.997 438.38 420.366 448.631 420.366 C 456.514 420.366 463.567 415.34 466.186 407.839 L 466.304 407.497 L 461.001 407.497 L 460.935 407.668 C 459.58 411.326 455.54 415.655 448.566 415.787 C 441.854 415.787 435.67 410.115 435.209 403.575 L 467.212 403.575 L 467.226 403.338 C 467.462 399.127 466.541 395.337 464.488 392.061 C 461.988 387.692 456.488 382.994 448.566 382.928 Z  M 435.235 399.009 C 436.564 391.455 442.947 387.494 448.631 387.494 C 454.106 387.494 460.593 391.1 462.08 399.009 L 435.235 399.009 Z " fill="rgb(255,255,255)"/></g><g><path d=" M 504.948 371.44 L 504.948 389.521 C 500.434 383.428 493.447 382.954 491.381 382.954 C 479.38 382.954 472.208 392.442 472.208 401.614 C 472.208 412.142 480.63 420.393 491.381 420.393 C 495.697 420.393 501.5 418.616 504.948 413.76 L 504.948 419.564 L 509.975 419.564 L 509.975 371.44 L 504.948 371.44 Z  M 491.381 415.826 C 483.314 415.826 477.235 409.799 477.235 401.799 C 477.235 392.429 484.354 387.521 491.381 387.521 C 499 387.521 505.211 393.903 505.211 401.746 C 505.211 409.642 499.132 415.826 491.381 415.826 Z " fill="rgb(255,255,255)"/></g><path d=" M 33.896 370.2 L 29.106 370.2 L 29.106 377.385 L 33.896 377.385 L 33.896 370.2 Z " fill="rgb(80,173,229)"/><g><path d=" M 12.817 371.44 L 2.395 371.44 L 2.395 375.954 L 8.053 375.954 L 8.053 415.063 L 2 415.063 L 2 419.564 L 18.41 419.564 L 18.41 415.063 L 12.817 415.063 L 12.817 371.44 Z " fill="rgb(80,173,229)"/></g><g><path d=" M 35.03 383.87 L 24.608 383.87 L 24.608 388.384 L 30.266 388.384 L 30.266 415.058 L 24.476 415.058 L 24.476 419.572 L 40.688 419.572 L 40.688 415.058 L 35.03 415.058 L 35.03 383.87 Z " fill="rgb(80,173,229)"/></g><g><path d=" M 54.702 373.726 C 51.583 376.516 51.465 379.74 51.333 383.635 L 51.333 383.885 L 45.674 383.885 L 45.674 388.53 L 51.399 388.53 L 51.399 415.059 L 45.674 415.059 L 45.674 419.56 L 61.953 419.56 L 61.953 415.059 L 56.162 415.059 L 56.162 388.53 L 61.953 388.53 L 61.953 383.885 L 56.162 383.885 L 56.176 383.122 C 56.228 380.542 56.281 378.318 58.452 376.7 C 59.61 375.752 61.097 375.226 63.005 375.081 L 63.242 375.055 L 63.242 370.752 L 62.966 370.765 C 59.215 371.002 56.676 371.923 54.702 373.726 Z " fill="rgb(80,173,229)"/></g><g><path d=" M 86.536 383.866 C 76.627 383.866 68.573 392.13 68.573 402.289 C 68.573 412.238 76.745 420.331 86.799 420.331 C 93.984 420.331 100.511 416.12 103.432 409.606 L 103.603 409.238 L 98.445 409.238 L 98.366 409.369 C 95.971 413.541 91.707 415.923 86.667 415.923 C 79.719 415.923 73.968 410.619 73.442 403.803 L 104.893 403.803 L 104.893 402.224 C 104.893 391.933 96.826 383.866 86.536 383.866 Z  M 73.468 399.737 C 74.389 393.42 80.153 388.327 86.47 388.327 C 93.431 388.327 99.182 393.104 100.261 399.737 L 73.468 399.737 Z " fill="rgb(80,173,229)"/></g><g><path d=" M 121.187 420.514 C 124.595 420.514 127.372 417.75 127.372 414.342 C 127.372 410.921 124.595 408.157 121.187 408.157 C 117.765 408.157 115.002 410.921 115.002 414.342 C 115.002 417.75 117.765 420.514 121.187 420.514 Z " fill="rgb(80,173,229)"/></g></g><g><g><g><g>
<linearGradient id="_lgradient_0" x1="0.5066919381265826" y1="1.0239607117800893" x2="0.4890269266016851" y2="0.42292583161124364" gradientTransform="matrix(473.854,0,0,-206.325,31.658,286.623)" gradientUnits="userSpaceOnUse"><stop offset="0%" stop-opacity="1" style="stop-color:rgb(93,161,194)"/><stop offset="13.6459%" stop-opacity="1" style="stop-color:rgb(30,73,101)"/><stop offset="36.1282%" stop-opacity="1" style="stop-color:rgb(56,130,185)"/><stop offset="44.5206%" stop-opacity="1" style="stop-color:rgb(93,161,194)"/><stop offset="54.0161%" stop-opacity="1" style="stop-color:rgb(56,130,185)"/><stop offset="64.389%" stop-opacity="1" style="stop-color:rgb(30,73,101)"/><stop offset="71.0846%" stop-opacity="1" style="stop-color:rgb(48,97,135)"/><stop offset="100%" stop-opacity="1" style="stop-color:rgb(48,97,135)"/></linearGradient><path d=" M 158.041 80.324 C 158.054 80.324 158.067 80.337 158.067 80.337 L 158.067 80.337 C 131.972 80.337 109.575 95.957 99.824 118.184 L 99.824 118.184 L 31.935 281.701 C 31.764 282.136 31.658 282.583 31.658 283.083 L 31.658 283.083 C 31.658 285.031 33.264 286.623 35.251 286.623 L 35.251 286.623 L 190.518 286.61 C 201.559 286.61 206.362 275.99 197.756 267.502 L 197.756 267.502 L 140.736 214.155 C 110.772 184.77 123.616 116.644 185.859 116.644 L 185.859 116.644 L 489.814 116.644 C 491.393 116.644 492.735 115.644 493.222 114.249 L 493.222 114.249 L 505.249 85.18 C 505.421 84.785 505.513 84.325 505.513 83.851 L 505.513 83.851 C 505.513 81.877 503.907 80.298 501.92 80.298 L 501.92 80.298 L 158.041 80.324 Z " fill="url(#_lgradient_0)"/></g></g></g></g><g><g><g><g><radialGradient id="_rgradient_0" fx="0.6240473750142339" fy="0.9335802601582408" cx="0.6240473750142339" cy="0.9335802601582408" r="1" gradientTransform="matrix(376.551,-113.813,-268.04,-159.887,37.488,281.228)" gradientUnits="userSpaceOnUse"><stop offset="0%" stop-opacity="1" style="stop-color:rgb(93,161,194)"/><stop offset="38.6505%" stop-opacity="1" style="stop-color:rgb(56,130,185)"/><stop offset="99.3866%" stop-opacity="1" style="stop-color:rgb(35,73,100)"/><stop offset="100%" stop-opacity="1" style="stop-color:rgb(35,73,100)"/></radialGradient><path d=" M 166.305 84.996 L 166.318 85.009 L 158.343 85.009 C 134.735 85.009 113.654 98.8 104.351 120.171 L 104.351 120.171 L 37.488 281.228 L 190.518 281.228 C 193.584 281.228 195.913 280.056 196.755 278.083 L 196.755 278.083 C 197.624 275.964 196.663 273.2 194.255 270.819 L 194.255 270.819 L 137.13 217.365 C 120.194 200.771 115.312 172.571 125.274 148.805 L 125.274 148.805 C 135.275 124.974 157.343 111.288 185.859 111.288 L 185.859 111.288 L 488.787 111.288 L 499.696 84.983 L 499.683 84.969 L 166.305 84.996 Z " fill="url(#_rgradient_0)"/></g></g></g></g><g><g><g><g><linearGradient id="_lgradient_1" x1="0.847406015037599" y1="1.0372302303860508" x2="0.13384761979712867" y2="-0.2723385748951952" gradientTransform="matrix(136.515,0,0,-169.071,334.731,332.588)" gradientUnits="userSpaceOnUse"><stop offset="0%" stop-opacity="1" style="stop-color:rgb(93,161,194)"/><stop offset="23.0087%" stop-opacity="1" style="stop-color:rgb(30,73,101)"/><stop offset="36.1282%" stop-opacity="1" style="stop-color:rgb(56,130,185)"/><stop offset="44.5206%" stop-opacity="1" style="stop-color:rgb(93,161,194)"/><stop offset="54.0161%" stop-opacity="1" style="stop-color:rgb(56,130,185)"/><stop offset="64.389%" stop-opacity="1" style="stop-color:rgb(30,73,101)"/><stop offset="71.0846%" stop-opacity="1" style="stop-color:rgb(48,97,135)"/><stop offset="100%" stop-opacity="1" style="stop-color:rgb(48,97,135)"/></linearGradient><path d=" M 409.292 163.583 C 405.344 163.583 401.975 165.952 400.554 169.36 L 400.554 169.36 L 335.152 327.391 C 334.889 327.891 334.731 328.456 334.731 329.049 L 334.731 329.049 C 334.731 330.983 336.363 332.575 338.337 332.575 L 338.337 332.575 L 360.128 332.588 L 360.115 332.562 C 386.579 332.562 409.41 316.534 418.937 293.795 L 418.937 293.795 C 418.937 293.795 418.977 293.821 419.016 293.847 L 419.016 293.847 L 470.996 168.373 C 471.154 167.965 471.246 167.518 471.246 167.07 L 471.246 167.07 C 471.246 165.097 469.627 163.517 467.653 163.517 L 467.653 163.517 L 409.292 163.583 Z " fill="url(#_lgradient_1)"/></g></g></g></g><g><g><g><g><radialGradient id="_rgradient_1" fx="0.07591019034599356" fy="1.4394262295081965" cx="0.07591019034599356" cy="1.4394262295081965" r="1" gradientTransform="matrix(101.942,-92.636,-72.566,-130.138,340.271,327.956)" gradientUnits="userSpaceOnUse"><stop offset="0%" stop-opacity="1" style="stop-color:rgb(93,161,194)"/><stop offset="38.6505%" stop-opacity="1" style="stop-color:rgb(56,130,185)"/><stop offset="99.3866%" stop-opacity="1" style="stop-color:rgb(35,73,100)"/><stop offset="100%" stop-opacity="1" style="stop-color:rgb(35,73,100)"/></radialGradient><path d=" M 409.292 168.268 C 407.515 168.268 405.949 169.308 405.278 170.926 L 405.278 170.926 L 340.271 327.956 L 351.904 327.956 L 351.891 327.904 L 359.839 327.904 C 383.263 327.904 404.186 314.336 413.595 293.242 L 413.595 293.242 L 465.403 168.215 L 465.39 168.215 L 409.292 168.268 Z " fill="url(#_rgradient_1)"/></g></g></g></g><g><g><g><g><linearGradient id="_lgradient_2" x1="0.5018420790757929" y1="1.0026666407222917" x2="0.45956178983995244" y2="0.023069616571178897" gradientTransform="matrix(180.744,0,0,-169.071,172.173,332.588)" gradientUnits="userSpaceOnUse"><stop offset="0%" stop-opacity="1" style="stop-color:rgb(93,161,194)"/><stop offset="13.6459%" stop-opacity="1" style="stop-color:rgb(30,73,101)"/><stop offset="36.1282%" stop-opacity="1" style="stop-color:rgb(56,130,185)"/><stop offset="44.5206%" stop-opacity="1" style="stop-color:rgb(93,161,194)"/><stop offset="54.0161%" stop-opacity="1" style="stop-color:rgb(56,130,185)"/><stop offset="64.389%" stop-opacity="1" style="stop-color:rgb(30,73,101)"/><stop offset="71.0846%" stop-opacity="1" style="stop-color:rgb(48,97,135)"/><stop offset="100%" stop-opacity="1" style="stop-color:rgb(48,97,135)"/></linearGradient><path d=" M 183.82 163.517 C 174.845 163.517 166.989 174.558 176.503 183.309 L 176.503 183.309 L 231.18 234.183 C 231.18 234.183 253.314 254.593 248.564 283.794 L 248.564 283.794 C 244.379 309.494 226.838 325.232 214.152 330.891 L 214.152 330.891 L 214.113 330.904 C 213.81 331.062 213.612 331.365 213.612 331.694 L 213.612 331.694 C 213.612 332.181 214.007 332.588 214.52 332.588 L 214.52 332.588 L 278.291 332.588 C 282.238 332.588 285.62 330.22 287.028 326.811 L 287.028 326.811 L 352.68 168.334 C 352.838 167.926 352.917 167.505 352.917 167.07 L 352.917 167.07 C 352.917 165.097 351.312 163.517 349.311 163.517 L 349.311 163.517 L 183.82 163.517 Z " fill="url(#_lgradient_2)"/></g></g></g></g><g><g><g><g><radialGradient id="_rgradient_2" fx="1.0202657242076114" fy="1.439419556800396" cx="1.0202657242076114" cy="1.439419556800396" r="1" gradientTransform="matrix(138.329,-92.636,-98.467,-130.138,177.279,327.956)" gradientUnits="userSpaceOnUse"><stop offset="0%" stop-opacity="1" style="stop-color:rgb(93,161,194)"/><stop offset="38.6505%" stop-opacity="1" style="stop-color:rgb(56,130,185)"/><stop offset="99.3866%" stop-opacity="1" style="stop-color:rgb(35,73,100)"/><stop offset="100%" stop-opacity="1" style="stop-color:rgb(35,73,100)"/></radialGradient><path d=" M 183.82 168.215 C 181.241 168.215 178.582 170.005 177.635 172.4 L 177.635 172.4 C 176.503 175.269 178.28 177.716 180.004 179.295 L 180.004 179.295 L 234.654 230.169 C 235.641 231.077 258.723 252.764 253.604 284.254 L 253.604 284.254 C 250.498 303.335 240.063 318.495 228.509 327.956 L 228.509 327.956 L 277.962 327.956 C 279.738 327.956 281.317 326.904 281.988 325.311 L 281.988 325.311 L 347.074 168.215 L 347.074 168.215 L 183.82 168.215 Z " fill="url(#_rgradient_2)"/></g></g></g></g><g><clipPath id="_clipPath_E2EexNT5gZN5UDXyeO580wCiTWFwlE37"><path d=" M 2.011 433.349 L 510 433.349 L 510 75.837 L 2.011 75.837 L 2.011 433.349 Z " fill="rgb(255,255,255)"/></clipPath><g clip-path="url(#_clipPath_E2EexNT5gZN5UDXyeO580wCiTWFwlE37)"><g><g><g><clipPath id="_clipPath_5ATHpaqwhw4Xav3W94YNlDv98hvJ2aNJ"><path d=" M 59.148 80.304 L 505.513 80.304 L 505.513 246.159 L 59.148 246.159 L 59.148 80.304 Z " fill="rgb(255,255,255)"/></clipPath><g clip-path="url(#_clipPath_5ATHpaqwhw4Xav3W94YNlDv98hvJ2aNJ)"><g style="opacity:0.10000598;"><g style="opacity:0.10000598;"><clipPath id="_clipPath_3ukSFrgV6Bfkbqj0FM3kOtf9Rse3ex90"><path d=" M 59.148 246.158 L 505.5 246.158 L 505.5 80.298 L 59.148 80.298 L 59.148 246.158 Z " fill="rgb(255,255,255)"/></clipPath><g clip-path="url(#_clipPath_3ukSFrgV6Bfkbqj0FM3kOtf9Rse3ex90)"><g style="opacity:0.10000598;"><g style="opacity:0.10000598;"><g opacity="0.10000598"><path d=" M 352.934 167.064 C 352.934 167.498 352.855 167.919 352.671 168.353 L 321.97 242.48 C 299.139 244.875 275.373 246.165 250.963 246.165 C 247.462 246.165 243.975 246.112 240.501 246.072 C 235.882 238.493 231.184 234.176 231.184 234.176 L 176.494 183.289 C 166.98 174.552 174.862 163.511 183.824 163.511 L 349.315 163.511 C 351.302 163.511 352.934 165.09 352.934 167.064 Z " fill="rgb(255,255,255)"/></g></g><g style="opacity:0.10000598;"><g opacity="0.10000598"><path d=" M 471.235 167.064 C 471.235 167.538 471.143 167.959 470.972 168.393 L 452.72 212.477 C 428.994 221.596 402.333 229.176 373.475 234.782 L 400.57 169.38 C 401.991 165.958 405.347 163.603 409.307 163.603 L 467.656 163.511 C 469.643 163.511 471.235 165.09 471.235 167.064 Z " fill="rgb(255,255,255)"/></g></g><g style="opacity:0.10000598;"><g opacity="0.10000598"><path d=" M 505.509 83.859 C 505.509 84.332 505.417 84.793 505.246 85.188 L 493.244 114.244 C 492.731 115.665 491.389 116.639 489.796 116.639 L 185.842 116.639 C 123.612 116.639 110.782 184.778 140.719 214.149 L 169.735 241.284 C 129.086 236.31 91.622 227.677 59.158 216.163 L 99.807 118.191 C 109.571 95.926 131.968 80.345 158.063 80.345 L 158.063 80.306 L 501.943 80.306 C 503.916 80.306 505.509 81.885 505.509 83.859 Z " fill="rgb(255,255,255)"/></g></g></g></g></g></g></g></g></g></g></g></g></g></svg>